<svg version="1.0" xmlns="http://www.w3.org/2000/svg" width="512" height="512" viewBox="0 0 512 512" fill="none">
  <g clip-path="url(#clip0_1048_20)">
    <rect width="512" height="512" rx="128" fill="#FFFFFF"/>
    <path d="M182.176 190.089L187.633 180.603C194.93 167.916 213.236 167.919 220.53 180.607L225.952 190.039C225.959 190.052 225.959 190.068 225.952 190.081V190.081C225.945 190.093 225.945 190.109 225.952 190.122L295.771 311.579C303.041 324.224 293.913 340 279.327 340V340C272.538 340 266.266 336.371 262.882 330.485L204.055 228.149L182.176 190.089Z" fill="#000000"/>
    <path d="M128.782 340C135.572 340 141.843 336.371 145.227 330.485L204.055 228.149L182.176 190.089L112.338 311.579C105.069 324.224 114.197 340 128.782 340V340Z" fill="#000000"/>
    <path d="M386.95 339.984C380.289 339.984 374.114 336.496 370.674 330.792L291.949 200.209C283.841 186.759 293.527 169.609 309.232 169.609V169.609C316.416 169.609 323.059 173.429 326.673 179.638L403.375 311.42C410.749 324.089 401.609 339.984 386.95 339.984V339.984Z" fill="#000000"/>
  </g>
  <defs>
    <clipPath id="clip0_1048_20">
      <rect width="512" height="512" fill="#FFFFFF"/>
    </clipPath>
  </defs>
</svg>