<svg version="1.0" xmlns="http://www.w3.org/2000/svg" width="52" height="30" viewBox="0 0 52 30" fill="none">
  <path d="M12.8158 4.48328L13.7681 2.84421C15.0227 0.684794 18.1417 0.685221 19.3957 2.84498L20.342 4.47476C20.3433 4.47694 20.3433 4.47962 20.342 4.4818V4.4818C20.3407 4.48397 20.3407 4.48666 20.342 4.48883L32.3175 25.1137C33.5766 27.2823 32.012 30 29.5044 30V30C28.3451 30 27.2734 29.383 26.6913 28.3805L16.5773 10.9616L12.8158 4.48328Z" fill="#000000"/>
  <path d="M3.65023 30C4.80953 30 5.88122 29.383 6.46333 28.3805L16.5773 10.9616L12.8158 4.48328L0.83713 25.1137C-0.422026 27.2823 1.14258 30 3.65023 30V30Z" fill="#000000"/>
  <path d="M48.0073 29.9973C46.8702 29.9973 45.8152 29.4045 45.2238 28.4333L31.7199 6.25714C30.3158 3.95131 31.9756 0.997339 34.6753 0.997339V0.997339C35.9017 0.997339 37.0366 1.64659 37.6581 2.70389L50.8168 25.0866C52.094 27.2592 50.5275 29.9973 48.0073 29.9973V29.9973Z" fill="#000000"/>
</svg>