<svg version="1.0" xmlns="http://www.w3.org/2000/svg" width="700.000000pt" height="700.000000pt" viewBox="0 0 700.000000 700.000000" preserveAspectRatio="xMidYMid meet">
  <g transform="translate(0.000000,700.000000) scale(0.100000,-0.100000)" fill="#000000" stroke="none">
    <path d="M4147 4670 c-116 -35 -208 -171 -193 -284 10 -75 14 -85 113 -249 54 -89 99 -168 101 -174 2 -7 7 -13 12 -13 5 0 10 -6 12 -13 2 -7 77 -136 168 -285 91 -150 172 -285 181 -300 24 -41 449 -746 502 -832 25 -41 56 -85 69 -97 41 -38 108 -66 165 -69 196 -9 333 200 245 373 -11 21 -122 214 -247 428 -125 215 -239 410 -253 435 -14 25 -35 61 -47 80 -12 19 -24 40 -26 45 -2 6 -24 44 -48 85 -165 280 -201 340 -223 380 -14 25 -61 106 -104 180 -43 74 -86 149 -94 165 -25 51 -105 121 -156 139 -50 17 -131 20 -177 6z"/>
    <path d="M2681 4634 c-25 -12 -60 -37 -77 -55 -17 -19 -101 -155 -186 -304 -86 -148 -320 -557 -522 -907 -201 -351 -371 -650 -377 -665 -61 -159 54 -339 223 -349 111 -6 199 48 265 164 21 37 43 76 50 87 7 11 15 27 20 35 4 8 20 38 36 65 24 41 253 438 317 550 10 17 68 118 130 225 62 107 137 239 167 293 30 53 58 97 62 97 5 0 400 -679 536 -921 275 -491 318 -552 411 -583 225 -74 417 158 307 371 -29 56 -400 704 -497 866 -25 43 -46 80 -46 82 0 2 -14 28 -31 57 -30 51 -399 692 -444 772 -73 129 -217 180 -344 120z"/>
  </g>
</svg>